<svg width="758" height="234" viewBox="0 0 758 234" fill="none" xmlns="http://www.w3.org/2000/svg">
<path d="M701.56 9.41766e-05H55.6699C53.5299 9.41766e-05 51.4101 8.14815e-05 49.2801 0.0120815C47.4901 0.0230815 45.7202 0.0570795 43.9102 0.0850795C39.9902 0.13208 36.0802 0.476086 32.2102 1.11709C28.3502 1.77109 24.6099 3.0061 21.1199 4.7781C17.6299 6.5651 14.4399 8.8851 11.6699 11.6581C8.87992 14.4231 6.55984 17.6191 4.78984 21.1231C3.00984 24.6191 1.77984 28.3661 1.13984 32.2331C0.489844 36.0961 0.139844 40.0051 0.0898437 43.9211C0.0398437 45.7101 0.03 47.5071 0 49.2961V184.237C0.03 186.049 0.0398437 187.805 0.0898437 189.619C0.139844 193.535 0.489844 197.442 1.13984 201.306C1.77984 205.176 3.00984 208.925 4.78984 212.423C6.55984 215.915 8.87992 219.098 11.6699 221.846C14.4299 224.632 17.6199 226.955 21.1199 228.728C24.6099 230.505 28.3502 231.746 32.2102 232.41C36.0802 233.046 39.9902 233.391 43.9102 233.442C45.7202 233.483 47.4901 233.505 49.2801 233.505C51.4101 233.517 53.5299 233.517 55.6699 233.517H701.56C703.65 233.517 705.79 233.517 707.88 233.505C709.66 233.505 711.49 233.483 713.27 233.442C717.18 233.394 721.08 233.049 724.94 232.41C728.82 231.741 732.57 230.5 736.08 228.728C739.58 226.953 742.76 224.631 745.52 221.846C748.3 219.087 750.63 215.907 752.42 212.423C754.18 208.921 755.4 205.174 756.04 201.306C756.69 197.442 757.05 193.535 757.12 189.619C757.14 187.805 757.14 186.049 757.14 184.237C757.19 182.116 757.19 180.007 757.19 177.851V55.6711C757.19 53.5331 757.19 51.4121 757.14 49.2961C757.14 47.5071 757.14 45.7101 757.12 43.9211C757.05 40.0031 756.69 36.0961 756.04 32.2331C755.4 28.3671 754.18 24.6211 752.42 21.1211C748.82 14.1001 743.1 8.3831 736.08 4.7761C732.57 3.0101 728.82 1.77609 724.94 1.11709C721.08 0.473086 717.18 0.12808 713.27 0.0850795C711.49 0.0570795 709.66 0.0210795 707.88 0.0100795C705.79 7.9528e-05 703.65 9.41766e-05 701.56 9.41766e-05Z" fill="#A5A5A5"/>
<path d="M49.3103 228.408C47.5303 228.408 45.7902 228.385 44.0302 228.346C40.3702 228.298 36.7203 227.98 33.1103 227.393C29.7503 226.814 26.4899 225.736 23.4399 224.195C20.4199 222.667 17.6699 220.664 15.2899 218.26C12.8699 215.885 10.8602 213.132 9.33018 210.107C7.78018 207.064 6.72025 203.801 6.16025 200.433C5.56025 196.814 5.22994 193.155 5.18994 189.487C5.14994 188.255 5.1001 184.157 5.1001 184.157V49.2984C5.1001 49.2984 5.14994 45.2604 5.18994 44.0754C5.22994 40.4124 5.5601 36.7594 6.1501 33.1454C6.7101 29.7684 7.78018 26.4964 9.33018 23.4424C10.8502 20.4204 12.8501 17.6644 15.2501 15.2824C17.6501 12.8754 20.4199 10.8614 23.4399 9.3124C26.4799 7.7764 29.7299 6.7054 33.0899 6.1364C36.7099 5.5444 40.3699 5.22542 44.0399 5.17942L49.3103 5.10742H707.86L713.19 5.18242C716.82 5.22542 720.45 5.54242 724.04 6.13242C727.43 6.70742 730.72 7.78542 733.79 9.32942C739.85 12.4514 744.78 17.3914 747.89 23.4574C749.41 26.4894 750.46 29.7354 751.01 33.0834C751.62 36.7264 751.96 40.4084 752.03 44.1004C752.05 45.7534 752.05 47.5294 752.05 49.2984C752.09 51.4864 752.09 53.5704 752.09 55.6704V177.85C752.09 179.971 752.09 182.041 752.05 184.127C752.05 186.026 752.05 187.766 752.02 189.555C751.95 193.182 751.62 196.798 751.03 200.375C750.48 203.768 749.42 207.057 747.87 210.125C746.33 213.116 744.33 215.846 741.94 218.214C739.56 220.63 736.8 222.646 733.77 224.184C730.71 225.737 727.43 226.819 724.04 227.393C720.43 227.983 716.78 228.301 713.12 228.346C711.41 228.385 709.62 228.408 707.89 228.408L701.56 228.42" fill="#040000"/>
<path d="M233.6 155.788H239.94V160.258H233.6V182.703H228.19V139.061H233.6V155.788ZM221.42 147.607H206.74V167.977C212.81 168.09 218.87 167.643 224.86 166.643L225.4 171.033C218.5 172.108 211.54 172.613 204.56 172.544H201.38V143.166H221.42" fill="white"/>
<path d="M254.11 149.095C254.11 151.889 258.19 153.69 263.74 153.69C269.46 153.69 273.41 151.889 273.41 149.095C273.41 146.244 269.48 144.426 263.76 144.426C258.19 144.426 254.11 146.244 254.11 149.095ZM254.27 177.236H278.92V181.523H248.91V169.106H254.27V177.236ZM248.6 149.044C248.6 143.987 254.47 140.321 263.76 140.321C273.05 140.321 278.97 143.987 278.97 149.044C278.97 154.175 273.05 157.84 263.81 157.84C254.47 157.84 248.6 154.175 248.6 149.044ZM283.46 160.566V164.876H266.79V173.108H261.32V164.876H244.01V160.566" fill="white"/>
<path d="M327.83 172.88V177.19H288.37V172.88H305.38V165.771H293.43V151.455H317.36V146.142H293.35V141.808H322.83V155.817H298.81V161.461H323.93V165.771H310.77V172.88" fill="white"/>
<path d="M367.12 147.122H343.18V159.129H367.45V163.484H337.85V142.755H367.12V147.122ZM372.2 176.905H332.743V172.595H372.2V176.905Z" fill="white"/>
<path d="M424.37 157.099H430.63V161.534H424.37V182.703H418.99V139.089H424.37V157.099ZM403.02 170.155C405.79 170.327 408.18 168.222 408.35 165.453C408.52 162.684 406.42 160.299 403.65 160.126C403.44 160.113 403.23 160.113 403.02 160.126C400.26 160.022 397.93 162.183 397.82 164.952C397.72 167.721 399.88 170.051 402.65 170.155C402.77 170.159 402.9 170.159 403.02 170.155ZM409.62 146.273H396.38V141.889H409.62V146.273ZM401.82 174.419C396.12 173.779 392.08 169.112 392.79 163.995C393.5 158.879 398.7 155.25 404.41 155.89C409.61 156.475 413.52 160.446 413.52 165.154C413.38 170.421 408.51 174.59 402.64 174.465C402.37 174.459 402.09 174.444 401.82 174.419ZM415.52 153.866H390.07V149.584H415.52" fill="white"/>
<path d="M470.77 182.731H465.36V139.061H470.77V182.731ZM437.82 174.772L434.77 170.542C444.01 166.579 450.51 158.076 451.91 148.12H437.21V143.656H457.66C457.53 156.965 449.84 169.041 437.82 174.772Z" fill="white"/>
<path d="M219.13 88.9112H237.85L228.61 61.7342H228.36L219.13 88.9112ZM240.29 96.6422H216.68L211.01 113.386H201.01L223.38 51.4262H233.77L256.14 113.386H245.96" fill="white"/>
<path d="M295 90.8041C295 81.6541 290.28 75.6451 283.07 75.6451C275.98 75.6451 271.22 81.7851 271.22 90.8041C271.22 99.9031 275.98 106.003 283.07 106.003C290.28 106.003 295 100.034 295 90.8041ZM304.53 90.8041C304.53 104.84 297.02 113.859 285.69 113.859C279.83 114.168 274.31 111.099 271.47 105.958H271.26V128.328H261.99V68.2161H270.96V75.7301H271.13C274.09 70.6211 279.62 67.5511 285.52 67.7431C296.98 67.7431 304.53 76.8021 304.53 90.8041Z" fill="white"/>
<path d="M344.81 90.8041C344.81 81.6541 340.09 75.6451 332.88 75.6451C325.79 75.6451 321.02 81.7851 321.02 90.8041C321.02 99.9031 325.79 106.003 332.88 106.003C340.09 106.003 344.81 100.034 344.81 90.8041ZM354.34 90.8041C354.34 104.84 346.83 113.859 335.49 113.859C329.63 114.168 324.11 111.099 321.28 105.958H321.07V128.328H311.79V68.2161H320.77V75.7301H320.94C323.89 70.6211 329.42 67.5511 335.32 67.7431C346.79 67.7431 354.34 76.8021 354.34 90.8041Z" fill="white"/>
<path d="M387.37 96.1235C388.06 102.263 394.03 106.299 402.19 106.299C410 106.299 415.63 102.263 415.63 96.7275C415.63 91.9165 412.24 89.0425 404.2 87.0645L396.18 85.1315C384.8 82.3835 379.52 77.0645 379.52 68.4335C379.52 57.7435 388.83 50.4005 402.06 50.4005C415.16 50.4005 424.13 57.7435 424.43 68.4335H415.07C414.51 62.2475 409.4 58.5135 401.93 58.5135C394.46 58.5135 389.35 62.2935 389.35 67.7895C389.35 72.1675 392.61 74.7445 400.6 76.7175L407.43 78.3935C420.13 81.3975 425.42 86.5055 425.42 95.5705C425.42 107.16 416.19 114.418 401.5 114.418C387.76 114.418 378.49 107.331 377.89 96.1235" fill="white"/>
<path d="M445.43 57.5263V68.2163H454.02V75.5603H445.43V100.462C445.43 104.326 447.15 106.128 450.93 106.128C451.95 106.112 452.96 106.042 453.97 105.917V113.214C452.28 113.53 450.55 113.673 448.83 113.642C439.68 113.642 436.11 110.21 436.11 101.448V75.5603H429.55V68.2163H436.11V57.5263" fill="white"/>
<path d="M492.5 90.8043C492.5 81.0553 488.04 75.3033 480.53 75.3033C473.01 75.3033 468.55 81.0953 468.55 90.8043C468.55 100.593 473.01 106.3 480.53 106.3C488.04 106.3 492.5 100.593 492.5 90.8043ZM459.1 90.8043C459.1 76.5913 467.47 67.6583 480.53 67.6583C493.62 67.6583 501.95 76.5913 501.95 90.8043C501.95 105.057 493.67 113.945 480.53 113.945C467.38 113.945 459.1 105.057 459.1 90.8043Z" fill="white"/>
<path d="M509.6 68.2162H518.44V75.9012H518.66C519.89 70.9532 524.42 67.5472 529.52 67.7432C530.59 67.7362 531.66 67.8532 532.7 68.0912V76.7622C531.35 76.3502 529.94 76.1622 528.53 76.2032C523.38 75.9932 519.03 79.9992 518.82 85.1512C518.8 85.6322 518.82 86.1132 518.88 86.5912V113.386H509.6" fill="white"/>
<path d="M544.1 86.6363H566.69C567.02 80.6433 562.43 75.5163 556.44 75.1853C556.17 75.1703 555.89 75.1653 555.61 75.1713C549.3 75.1323 544.14 80.2233 544.1 86.5413C544.1 86.5723 544.1 86.6043 544.1 86.6363ZM575.45 100.119C573.34 108.948 565.03 114.857 556 113.944C542.86 113.944 534.7 105.142 534.7 91.0143C534.7 76.8473 542.9 67.6573 555.61 67.6573C568.11 67.6573 575.96 76.2433 575.96 89.9423V93.1183H544.06V93.6773C543.49 100.147 548.27 105.857 554.74 106.432C555.23 106.475 555.72 106.488 556.21 106.47C560.71 106.892 564.95 104.31 566.65 100.119" fill="white"/>
<path d="M633.36 113.353H626.131V51.2275H633.36V113.353ZM601.19 78.1475C601.19 69.6365 599.14 63.1365 594.87 63.1365C590.71 63.1365 588.81 69.6365 588.81 78.1475C588.81 86.6935 590.71 93.1185 594.87 93.1185C599.14 93.1185 601.19 86.6935 601.19 78.1475ZM613.5 52.4705H620.73V110.434H613.5V81.1755H608.2C607.54 91.5115 603.34 100.497 594.87 100.497C585.56 100.497 581.43 89.6865 581.43 78.1475C581.43 66.6035 585.56 56.0165 594.87 56.0165C603.16 56.0165 607.36 64.4145 608.16 74.4195H613.5" fill="white"/>
<path d="M695.15 113.353H687.41V79.2025H674.95V72.6695H687.41V51.2275H695.15V113.353ZM666.04 65.7995C665.52 76.9745 671.49 87.4455 681.38 92.6805L676.89 98.4895C670.25 94.7155 665.07 88.8265 662.17 81.7625C659.54 89.4515 654.25 95.9515 647.27 100.098L642.52 94.4705C652.61 88.6505 658.61 77.6915 658.08 66.0565V56.4495H666.04" fill="white"/>
<path d="M144.6 118.514C144.73 108.609 149.92 99.4613 158.36 94.2753C153.01 86.6373 144.38 81.9693 135.06 81.6773C125.26 80.6483 115.75 87.5433 110.76 87.5433C105.67 87.5433 97.9699 81.7793 89.6899 81.9503C78.7899 82.3023 68.8801 88.3483 63.5802 97.8753C52.2902 117.423 60.7102 146.151 71.5302 161.952C76.9402 169.691 83.2599 178.332 91.5399 178.026C99.6299 177.691 102.66 172.862 112.43 172.862C122.12 172.862 124.95 178.026 133.4 177.832C142.09 177.691 147.56 170.059 152.78 162.25C156.67 156.736 159.66 150.643 161.65 144.195C151.33 139.83 144.62 129.718 144.6 118.514Z" fill="white"/>
<path d="M128.66 71.2864C133.39 65.5994 135.73 58.2894 135.16 50.9084C127.93 51.6684 121.24 55.1284 116.44 60.5974C111.7 65.9934 109.29 73.0524 109.76 80.2204C117.1 80.2964 124.06 77.0034 128.66 71.2864Z" fill="white"/>
</svg>
