<svg width="786" height="234" viewBox="0 0 786 234" fill="none" xmlns="http://www.w3.org/2000/svg">
<path d="M28.8395 2.4539H756.59C771.13 2.4539 782.97 14.2969 782.97 28.8389V204.702C782.97 219.244 771.13 231.087 756.59 231.087H28.8395C14.2996 231.087 2.45947 219.244 2.45947 204.702V28.8389C2.45947 14.2969 14.2996 2.4539 28.8395 2.4539Z" fill="#040000"/>
<path d="M756.59 -3.48005e-06H28.8398C12.9498 -3.48005e-06 0 12.946 0 28.84V204.701C0 220.594 12.9498 233.542 28.8398 233.542H756.59C772.48 233.542 785.43 220.594 785.43 204.701V28.84C785.43 12.946 772.48 -3.48005e-06 756.59 -3.48005e-06ZM756.59 4.908C769.78 4.908 780.52 15.646 780.52 28.84V204.701C780.52 217.894 769.78 228.633 756.59 228.633H28.8398C15.6498 228.633 4.90977 217.894 4.90977 204.701V28.84C4.90977 15.646 15.6498 4.908 28.8398 4.908" fill="#A5A5A5"/>
<path d="M287.23 77.3146C287.23 84.1866 285.209 89.7096 281.159 93.8206C276.619 98.7296 270.61 101.123 263.18 101.123C255.76 101.123 250.05 98.6065 245.14 93.6365C240.23 88.6665 237.78 82.5306 237.78 75.2896C237.78 68.0486 240.23 61.9126 245.14 56.9426C250.05 51.9726 256.06 49.5176 263.18 49.5176C266.8 49.5176 270.18 50.1316 273.37 51.4196C276.56 52.7086 279.2 54.5496 281.22 56.8816L276.68 61.4216C275.21 59.5816 273.25 58.1696 270.85 57.1266C268.46 56.0836 265.88 55.5926 263.18 55.5926C257.84 55.5926 253.36 57.4336 249.62 61.1766C246 64.9806 244.159 69.6446 244.159 75.3506C244.159 81.0576 246 85.7216 249.62 89.5256C253.3 93.2686 257.84 95.1095 263.18 95.1095C268.03 95.1095 272.14 93.6986 275.33 90.9986C278.58 88.2366 280.419 84.4325 280.909 79.5845H263.12V73.6326H286.8C287.05 74.9216 287.17 76.1486 287.17 77.3756" fill="white"/>
<path d="M298.77 83.083C298.77 86.703 299.81 89.649 301.9 91.919C303.99 94.189 306.56 95.294 309.69 95.294C312.82 95.294 315.4 94.189 317.49 91.919C319.57 89.649 320.62 86.703 320.62 83.083C320.62 79.463 319.57 76.579 317.49 74.308C315.34 71.977 312.76 70.872 309.69 70.872C306.62 70.872 304.05 72.038 301.9 74.308C299.81 76.579 298.77 79.463 298.77 83.083ZM292.51 83.083C292.51 77.867 294.11 73.572 297.36 70.197C300.61 66.761 304.78 65.104 309.75 65.104C314.72 65.104 318.84 66.822 322.03 70.197C325.28 73.633 326.94 77.929 326.94 83.083C326.94 88.237 325.28 92.655 322.03 95.969C318.77 99.405 314.66 101.062 309.75 101.062C304.85 101.062 300.67 99.344 297.36 95.969C294.11 92.533 292.51 88.237 292.51 83.083Z" fill="white"/>
<path d="M338.1 83.083C338.1 86.703 339.15 89.649 341.23 91.919C343.32 94.189 345.9 95.294 349.03 95.294C352.16 95.294 354.73 94.189 356.82 91.919C358.91 89.649 359.95 86.703 359.95 83.083C359.95 79.463 358.91 76.579 356.82 74.308C354.67 71.977 352.09 70.872 349.03 70.872C345.96 70.872 343.38 72.038 341.23 74.308C339.15 76.579 338.1 79.463 338.1 83.083ZM331.84 83.083C331.84 77.867 333.44 73.572 336.69 70.197C339.94 66.761 344.12 65.104 349.09 65.104C354.06 65.104 358.17 66.822 361.36 70.197C364.61 73.633 366.27 77.929 366.27 83.083C366.27 88.237 364.61 92.655 361.36 95.969C358.11 99.405 354 101.062 349.09 101.062C344.18 101.062 340.01 99.344 336.69 95.969C333.44 92.533 331.84 88.237 331.84 83.083Z" fill="white"/>
<path d="M388.05 95.2937C391.12 95.2937 393.699 94.1887 395.659 91.9187C397.689 89.6487 398.73 86.7027 398.73 83.0827C398.73 79.4627 397.689 76.6397 395.659 74.3077C393.639 71.9767 391.12 70.8717 388.05 70.8717C384.98 70.8717 382.53 72.0377 380.44 74.3077C378.42 76.6397 377.37 79.5237 377.37 83.0827C377.37 86.6417 378.42 89.5867 380.44 91.8577C382.47 94.1887 385.05 95.2937 388.05 95.2937ZM387.87 116.034C386.03 116.034 384.25 115.789 382.59 115.298C380.93 114.807 379.459 114.132 378.109 113.273C376.759 112.414 375.6 111.371 374.68 110.143C373.69 108.916 373.02 107.628 372.47 106.155L378.42 103.639C379.09 105.603 380.26 107.198 381.98 108.425C383.63 109.591 385.6 110.205 387.87 110.205C391.3 110.205 393.94 109.162 395.84 107.075C397.75 104.989 398.73 102.166 398.73 98.4847V95.2327H398.48C397.32 97.0117 395.66 98.4227 393.64 99.4667C391.61 100.51 389.4 101.001 387.07 101.001C382.71 101.001 378.91 99.2817 375.78 95.8457C372.65 92.2867 371.12 88.0527 371.12 83.0217C371.12 77.9897 372.65 73.7557 375.78 70.2577C378.91 66.7607 382.65 65.0427 387.07 65.0427C389.46 65.0427 391.61 65.5337 393.64 66.5767C395.66 67.6197 397.26 69.0307 398.48 70.8107H398.73V66.0857H404.74V98.4847C404.74 103.885 403.21 108.18 400.14 111.248C397.07 114.377 392.96 115.911 387.87 115.911" fill="white"/>
<path d="M413.459 100.019H419.718V50.562H413.459V100.019Z" fill="white"/>
<path d="M433.03 79.0326H452.24C452.05 76.7006 451.13 74.7376 449.41 73.2036C447.7 71.6696 445.42 70.8716 442.54 70.8716C440.15 70.8716 438.12 71.6076 436.4 73.0806C434.69 74.5536 433.58 76.5166 433.03 79.0326ZM443.09 101.123C438.18 101.123 434.13 99.4046 430.94 96.0296C427.75 92.5936 426.16 88.2986 426.16 83.1436C426.16 77.9896 427.69 73.6946 430.82 70.2576C433.89 66.8216 437.88 65.1036 442.72 65.1036C447.57 65.1036 451.62 66.6986 454.57 69.9506C457.51 73.2036 458.99 77.7436 458.99 83.5736V84.2486H432.6C432.72 87.5616 433.77 90.2615 435.91 92.2865C438 94.3115 440.52 95.2936 443.4 95.2936C447.39 95.2936 450.58 93.2686 452.85 89.2186L458.43 91.9796C456.9 94.8636 454.87 97.0726 452.17 98.6686C449.54 100.264 446.47 101.062 443.09 101.062" fill="white"/>
<path d="M489.18 56.636V73.879H499.73C502.25 73.879 504.33 73.02 505.93 71.301C507.58 69.583 508.44 67.558 508.44 65.227C508.44 62.895 507.58 60.931 505.93 59.213C504.27 57.495 502.18 56.575 499.73 56.575H489.18V56.636ZM489.18 79.953V99.957H482.92V50.5H499.61C503.84 50.5 507.46 51.911 510.41 54.795C513.41 57.618 514.95 61.115 514.95 65.227C514.95 69.338 513.41 72.897 510.41 75.719C507.46 78.542 503.9 79.953 499.61 79.953H489.24" fill="white"/>
<path d="M521.7 100.019H527.959V50.562H521.7V100.019Z" fill="white"/>
<path d="M540.84 89.587C540.84 91.244 541.52 92.655 542.93 93.698C544.34 94.803 545.93 95.355 547.84 95.355C550.48 95.355 552.81 94.373 554.89 92.41C556.98 90.446 558.02 88.114 558.02 85.414C556.06 83.88 553.36 83.083 549.8 83.083C547.22 83.083 545.14 83.696 543.42 84.925C541.7 86.151 540.84 87.685 540.84 89.526V89.587ZM549 65.042C553.67 65.042 557.29 66.271 559.99 68.785C562.69 71.301 564.04 74.739 564.04 79.094V99.957H558.02V95.232H557.78C555.2 99.098 551.7 101.062 547.41 101.062C543.73 101.062 540.66 99.957 538.14 97.748C535.63 95.539 534.4 92.778 534.4 89.464C534.4 85.967 535.69 83.205 538.33 81.119C540.96 79.033 544.46 77.991 548.82 77.991C552.56 77.991 555.63 78.666 558.02 80.076V78.603C558.02 76.394 557.16 74.492 555.45 72.958C553.73 71.425 551.7 70.626 549.37 70.626C545.87 70.626 543.11 72.1 541.03 75.107L535.5 71.608C538.57 67.191 543.05 64.982 549.06 64.982" fill="white"/>
<path d="M601.41 66.1477L580.42 114.868H573.92L581.71 97.8097L567.899 66.1477H574.71L584.72 90.4457H584.84L594.53 66.1477H601.34" fill="white"/>
<path d="M661.72 44.6089V106.523H656.39V44.6089H661.72ZM631.47 71.2409C631.47 61.2999 628.339 55.0409 623.559 55.0409C618.769 55.0409 615.58 61.2999 615.58 71.2409C615.58 81.1819 618.649 87.6849 623.559 87.6849C628.469 87.6849 631.47 81.4259 631.47 71.2409ZM644.24 45.9589H649.57V103.455H644.24V73.326H636.499C636.009 85.476 631.039 92.901 623.499 92.901C615.519 92.901 610.359 84.6169 610.359 71.2409C610.359 57.8639 615.459 49.7639 623.499 49.7639C630.859 49.7639 635.769 57.0039 636.499 68.6639H644.24" fill="white"/>
<path d="M723.02 44.609V106.584H717.44V70.198H703.199V65.595H717.44V44.609H723.02ZM693.999 61.054C693.999 72.283 701 83.575 709.83 87.808L706.52 92.287C699.52 88.789 693.94 81.366 691.12 72.714C688.48 81.917 682.769 89.71 675.899 93.391L672.459 88.912C681.359 84.433 688.29 72.467 688.29 61.054V49.948H693.88V61.054" fill="white"/>
<path d="M278.709 160.092H271.53V184.33H266.309V137.818H271.53V155.735H278.709V160.092ZM242.99 168.499C250.42 168.499 256 168.13 262.44 167.026L263 171.383C256 172.671 249.8 172.917 241.52 172.917H237.78V142.236H259.19V146.531H243.05V168.499" fill="white"/>
<path d="M292.759 148.31C292.759 151.625 296.99 153.526 303.5 153.526C310 153.526 314.17 151.625 314.17 148.31C314.17 144.996 309.94 143.094 303.5 143.094C297.05 143.094 292.759 144.996 292.759 148.31ZM293.13 179.053H319.82V183.348H287.85V169.603H293.13V178.991V179.053ZM287.239 148.31C287.239 142.482 293.679 138.86 303.559 138.86C313.439 138.86 319.88 142.482 319.88 148.31C319.88 154.139 313.439 157.76 303.559 157.76C293.679 157.76 287.239 154.139 287.239 148.31ZM324.42 160.889V165.185H306.559V173.96H301.23V165.185H282.689V160.889" fill="white"/>
<path d="M371.24 174.451V178.807H329.57V174.451H347.74V166.535H334.67V151.562H361.18V145.366H334.61V141.069H366.39V155.796H339.88V162.301H367.43V166.596H353.08V174.512H371.36" fill="white"/>
<path d="M413.459 163.958H381.55V141.868H413.09V146.163H386.82V159.663H413.459V163.958ZM418.18 178.255H376.454V173.898H418.18V178.255Z" fill="white"/>
<path d="M191.63 116.341C191.63 110.143 188.57 104.007 182.49 100.448L84.0699 43.6278C71.8599 36.5708 56.5801 45.4068 56.5801 59.5198V116.341" fill="#30A953"/>
<path d="M191.63 116.341C191.63 122.539 188.57 128.675 182.49 132.234L84.1299 189.054C71.9199 196.111 56.6396 187.275 56.6396 173.162V116.341H191.69" fill="#EB4335"/>
<path d="M57.1898 54.7957C56.8198 56.2687 56.5801 57.8637 56.5801 59.5207V173.162C56.5801 174.819 56.8198 176.414 57.1898 177.887L121.44 116.341L57.1898 54.7957Z" fill="#547DBF"/>
<path d="M182.43 100.448L154.39 84.2496L121.37 116.28L154.39 148.31L182.43 132.112C194.64 125.055 194.64 107.382 182.43 100.326" fill="#FBBC12"/>
</svg>
