<svg width="307" height="71" viewBox="0 0 307 71" fill="none" xmlns="http://www.w3.org/2000/svg">
<path d="M0 5.18304H13.8051L23.6173 37.3041L37.3047 5.41778H37.5399L51.1924 37.2598L60.9602 5.17986H74.8065L54.0387 69.6567H53.2826L37.2636 35.0487L21.4763 69.6567H20.7648L0 5.18304Z" fill="#FF5000"/>
<path d="M129.642 5.18329V68.8703H116.867V43.3505H93.9576V68.8703H81.1819V5.18329H93.9576V30.665H116.867V5.18329H129.642Z" fill="#FF5000"/>
<path d="M225.427 17.786V30.6267H247.425V43.3884H225.427V68.9493H212.61V5.02451H251.065V17.786H225.427Z" fill="#FF5000"/>
<path d="M289.08 59.9785H263.564L259.485 68.8668H245.639L276.102 3.60011H276.495L307 68.8668H293.115L289.08 59.9785ZM284.094 49.0759L276.339 32.0479L268.548 49.0759H284.094Z" fill="#FF5000"/>
<path d="M189.373 9.40856L189.065 0L181.521 5.57345C178.24 4.47905 174.739 3.87634 171.105 3.87634C152.869 3.87634 137.952 18.8108 137.952 37.1044C137.952 55.3982 152.869 70.0948 171.067 70.0948C189.266 70.0948 204.3 55.2396 204.3 37.1044C204.3 25.5642 198.347 15.369 189.373 9.40856ZM171.067 57.1334C159.946 57.1334 150.89 48.0865 150.89 37.0252C150.89 25.9639 159.946 16.7965 171.067 16.7965C182.188 16.7965 191.324 25.8847 191.324 37.0252C191.324 48.1657 182.223 57.1334 171.067 57.1334Z" fill="#FF5000"/>
</svg>
